<?xml version="1.0" encoding="UTF-8" standalone="no"?>
<!DOCTYPE svg PUBLIC "-//W3C//DTD SVG 1.1//EN" "http://www.w3.org/Graphics/SVG/1.1/DTD/svg11.dtd">
<svg width="100%" height="100%" viewBox="0 0 4613 1464" version="1.1" xmlns="http://www.w3.org/2000/svg" xmlns:xlink="http://www.w3.org/1999/xlink" xml:space="preserve" xmlns:serif="http://www.serif.com/" style="fill-rule:evenodd;clip-rule:evenodd;stroke-linejoin:round;stroke-miterlimit:2;">
    <g transform="matrix(1,0,0,1,-25444,-29135)">
        <g transform="matrix(1,0,0,1,17936.8,19460.1)">
            <rect id="LoyalBeagle_Text" x="7507.77" y="9675.12" width="4611.97" height="1463.28" style="fill:none;"/>
            <g id="LoyalBeagle_Text1" serif:id="LoyalBeagle_Text">
                <g transform="matrix(2,0,0,2,7006.99,7134.6)">
                    <path d="M560.043,1541.67L512.296,1618L438.144,1618L438.144,1412.9C438.144,1398.43 446.464,1391.92 466.358,1391.56L466.358,1382.88L337.587,1382.88L337.587,1391.56C358.567,1391.92 365.801,1398.8 365.801,1412.9L365.801,1606.06C365.801,1620.53 357.482,1627.04 337.587,1627.4L337.587,1636.08L560.043,1636.08L568.362,1541.67L560.043,1541.67Z" style="fill:rgb(1,25,54);fill-rule:nonzero;"/>
                    <path d="M681.941,1464.63C630.578,1463.54 587.533,1494.29 583.193,1545.65C578.49,1595.93 618.641,1640.78 677.601,1641.15C726.071,1641.51 768.392,1611.85 772.732,1560.12C777.073,1508.4 735.114,1465.71 681.941,1464.63ZM660.962,1482.71C682.303,1477.29 697.857,1508.4 706.538,1545.29C714.134,1581.1 716.305,1617.63 694.963,1623.06C674.345,1628.49 658.068,1597.38 649.387,1560.48C641.429,1524.31 640.344,1487.42 660.962,1482.71Z" style="fill:rgb(1,25,54);fill-rule:nonzero;"/>
                    <path d="M909.461,1466.08L909.461,1474.76C926.824,1476.93 936.952,1489.23 929.717,1508.03L904.759,1572.06L871.119,1505.14C863.523,1489.95 870.396,1477.65 883.418,1474.76L883.418,1466.08L756.817,1466.08L756.817,1474.76C773.817,1478.37 786.839,1490.67 796.244,1508.03L871.481,1648.02C861.715,1677.68 846.161,1691.42 822.649,1691.42C808.904,1691.42 799.499,1680.93 800.946,1668.28C774.179,1668.64 760.072,1682.02 760.072,1704.09C760.072,1726.15 780.69,1744.96 806.01,1744.96C843.99,1744.96 866.779,1716.02 887.035,1666.83L949.973,1514.18C961.548,1486.33 964.442,1478.74 989.039,1474.76L989.039,1466.08L909.461,1466.08Z" style="fill:rgb(1,25,54);fill-rule:nonzero;"/>
                    <path d="M1165.92,1627.4C1148.56,1624.14 1148.56,1608.95 1148.56,1594.48L1148.56,1527.57C1148.56,1480.18 1110.94,1462.46 1057.77,1462.46C1025.93,1462.46 987.23,1478.74 987.23,1505.86C987.23,1526.12 999.529,1539.14 1017.98,1539.14C1041.13,1539.14 1050.89,1522.5 1050.89,1513.46C1041.85,1511.65 1036.42,1502.25 1036.42,1495.01C1036.42,1485.97 1044.74,1478.74 1061.38,1478.74C1079.11,1478.74 1088.51,1486.33 1088.51,1516.71L1088.51,1538.42C1038.59,1538.42 975.655,1555.42 975.655,1594.48C975.655,1623.06 999.89,1640.42 1040.4,1640.42C1061.38,1640.42 1077.3,1631.02 1088.51,1617.27C1093.58,1627.76 1110.58,1640.42 1131.92,1640.42C1151.45,1640.42 1160.49,1637.53 1165.92,1636.08L1165.92,1627.4ZM1088.51,1587.97C1086.7,1601.72 1079.11,1614.02 1063.55,1614.02C1051.25,1614.02 1042.93,1604.25 1042.93,1590.14C1042.93,1559.04 1065,1549.63 1088.51,1549.63L1088.51,1587.97Z" style="fill:rgb(1,25,54);fill-rule:nonzero;"/>
                    <path d="M1163.75,1627.4L1163.75,1636.08L1283.11,1636.08L1283.11,1627.4C1265.03,1627.4 1257.07,1620.89 1257.07,1606.42L1257.07,1382.88L1163.75,1397.35L1163.75,1406.03C1181.83,1406.03 1189.79,1412.54 1189.79,1427.01L1189.79,1606.42C1189.79,1620.17 1182.92,1627.04 1163.75,1627.4Z" style="fill:rgb(1,25,54);fill-rule:nonzero;"/>
                    <path d="M1472.65,1636.08C1555.85,1636.08 1608.66,1607.14 1608.66,1554.7C1608.66,1505.86 1552.95,1480.9 1496.17,1476.93C1530.53,1474.39 1575.74,1457.39 1575.74,1428.1C1575.74,1395.9 1540.66,1382.88 1472.65,1382.88L1353.65,1382.88L1353.65,1391.56C1373.54,1391.92 1381.86,1398.43 1381.86,1412.9L1381.86,1606.06C1381.86,1620.17 1374.63,1627.04 1353.65,1627.4L1353.65,1636.08L1472.65,1636.08ZM1457.82,1400.97L1463.25,1400.97C1492.19,1400.97 1503.4,1417.97 1503.4,1433.52C1503.4,1449.07 1492.19,1467.88 1463.25,1467.88L1457.82,1467.88L1457.82,1400.97ZM1461.8,1485.97C1500.14,1485.97 1531.61,1509.84 1531.61,1554.7C1531.61,1601 1504.12,1618 1461.8,1618L1457.82,1618L1457.82,1485.97L1461.8,1485.97Z" style="fill:rgb(1,25,54);fill-rule:nonzero;"/>
                    <path d="M1742.13,1601.36C1712.83,1601.36 1697.28,1571.34 1692.58,1540.23L1794.22,1540.23C1792.77,1496.82 1759.86,1462.46 1707.41,1462.46C1654.96,1462.46 1621.32,1496.82 1621.32,1551.08C1621.32,1608.95 1670.15,1638.98 1713.2,1639.34C1767.82,1639.7 1788.43,1599.19 1793.13,1574.23L1783.01,1571.34C1776.5,1587.61 1762.39,1601.36 1742.13,1601.36ZM1710.3,1474.03C1730.2,1474.03 1732.73,1499.35 1732.01,1526.84L1691.13,1526.84C1689.68,1498.99 1696.92,1474.03 1710.3,1474.03Z" style="fill:rgb(1,25,54);fill-rule:nonzero;"/>
                    <path d="M1992.8,1627.4C1975.44,1624.14 1975.44,1608.95 1975.44,1594.48L1975.44,1527.57C1975.44,1480.18 1937.82,1462.46 1884.65,1462.46C1852.82,1462.46 1814.11,1478.74 1814.11,1505.86C1814.11,1526.12 1826.41,1539.14 1844.86,1539.14C1868.01,1539.14 1877.78,1522.5 1877.78,1513.46C1868.73,1511.65 1863.31,1502.25 1863.31,1495.01C1863.31,1485.97 1871.63,1478.74 1888.27,1478.74C1905.99,1478.74 1915.39,1486.33 1915.39,1516.71L1915.39,1538.42C1865.48,1538.42 1802.54,1555.42 1802.54,1594.48C1802.54,1623.06 1826.78,1640.42 1867.29,1640.42C1888.27,1640.42 1904.18,1631.02 1915.39,1617.27C1920.46,1627.76 1937.46,1640.42 1958.8,1640.42C1978.33,1640.42 1987.38,1637.53 1992.8,1636.08L1992.8,1627.4ZM1915.39,1587.97C1913.59,1601.72 1905.99,1614.02 1890.44,1614.02C1878.14,1614.02 1869.82,1604.25 1869.82,1590.14C1869.82,1559.04 1891.88,1549.63 1915.39,1549.63L1915.39,1587.97Z" style="fill:rgb(1,25,54);fill-rule:nonzero;"/>
                    <path d="M2130.26,1620.89C2093,1608.95 2045.98,1602.8 2042.36,1579.29C2056.1,1584.72 2071.3,1587.25 2085.04,1587.25C2127,1587.25 2175.83,1563.02 2175.83,1525.76C2175.83,1492.12 2140.02,1471.5 2103.85,1465.71C2105.3,1451.25 2113.98,1438.95 2124.47,1437.86C2137.49,1436.78 2141.83,1448.35 2134.23,1457.39C2141.47,1479.1 2180.17,1469.33 2177.28,1443.65C2175.11,1424.84 2156.66,1410.73 2131.7,1413.63C2106.02,1416.52 2090.47,1436.05 2087.57,1464.27L2085.04,1464.27C2043.08,1464.27 1994.25,1488.5 1994.25,1525.76C1994.25,1546.01 2008.36,1561.93 2027.53,1572.78C2012.34,1581.46 2002.93,1591.95 2002.93,1607.14C2002.93,1623.06 2011.97,1643.32 2048.87,1655.62C2106.02,1674.79 2143.28,1675.87 2143.28,1703C2143.28,1712.77 2133.87,1735.55 2084.32,1735.55C2064.06,1735.55 2042.36,1728.32 2042.36,1714.57C2042.36,1703 2051.76,1699.74 2059.36,1702.64C2065.87,1690.34 2065.15,1662.49 2028.97,1662.49C2007.27,1662.49 1995.7,1679.13 1995.7,1695.77C1995.7,1740.26 2053.21,1753.64 2084.32,1753.64C2151.96,1753.64 2178.72,1707.7 2178.72,1674.06C2178.72,1658.15 2170.04,1633.55 2130.26,1620.89ZM2076.36,1480.18C2095.89,1476.93 2110.36,1496.82 2114.34,1520.33C2117.96,1541.31 2113.62,1564.46 2094.45,1567.72C2078.53,1570.61 2060.08,1550.72 2055.74,1526.12C2052.12,1504.42 2059.72,1483.44 2076.36,1480.18Z" style="fill:rgb(1,25,54);fill-rule:nonzero;"/>
                    <path d="M2178.72,1627.4L2178.72,1636.08L2298.09,1636.08L2298.09,1627.4C2280.01,1627.4 2272.05,1620.89 2272.05,1606.42L2272.05,1382.88L2178.72,1397.35L2178.72,1406.03C2196.81,1406.03 2204.77,1412.54 2204.77,1427.01L2204.77,1606.42C2204.77,1620.17 2197.9,1627.04 2178.72,1627.4Z" style="fill:rgb(1,25,54);fill-rule:nonzero;"/>
                    <path d="M2417.1,1601.36C2387.8,1601.36 2372.24,1571.34 2367.54,1540.23L2469.18,1540.23C2467.74,1496.82 2434.82,1462.46 2382.37,1462.46C2329.92,1462.46 2296.28,1496.82 2296.28,1551.08C2296.28,1608.95 2345.11,1638.98 2388.16,1639.34C2442.78,1639.7 2463.4,1599.19 2468.1,1574.23L2457.97,1571.34C2451.46,1587.61 2437.35,1601.36 2417.1,1601.36ZM2385.26,1474.03C2405.16,1474.03 2407.69,1499.35 2406.97,1526.84L2366.09,1526.84C2364.65,1498.99 2371.88,1474.03 2385.26,1474.03Z" style="fill:rgb(1,25,54);fill-rule:nonzero;"/>
                </g>
                <g transform="matrix(0.695041,0,0,0.695041,7925.48,9782.43)">
                    <path d="M398.344,1377.16L466.696,1377.16C484.476,1377.16 499.724,1378.81 512.44,1382.1C525.157,1385.4 536.696,1391.58 547.058,1400.65C574.022,1423.73 587.504,1458.82 587.504,1505.91C587.504,1521.46 586.15,1535.64 583.441,1548.48C580.733,1561.31 576.553,1572.88 570.902,1583.18C565.25,1593.49 558.008,1602.7 549.177,1610.83C542.23,1617.07 534.636,1622.07 526.393,1625.84C518.151,1629.61 509.291,1632.26 499.812,1633.79C490.334,1635.32 479.648,1636.08 467.756,1636.08L399.404,1636.08C389.867,1636.08 382.684,1634.64 377.856,1631.76C373.029,1628.87 369.879,1624.81 368.407,1619.57C366.935,1614.33 366.2,1607.53 366.2,1599.17L366.2,1409.3C366.2,1398 368.731,1389.82 373.794,1384.75C378.857,1379.69 387.041,1377.16 398.344,1377.16ZM418.656,1418.66L418.656,1594.4L458.395,1594.4C467.108,1594.4 473.937,1594.16 478.883,1593.69C483.828,1593.22 488.95,1592.05 494.249,1590.16C499.547,1588.28 504.139,1585.63 508.025,1582.21C525.569,1567.38 534.341,1541.83 534.341,1505.56C534.341,1480.01 530.485,1460.88 522.773,1448.16C515.06,1435.44 505.552,1427.35 494.249,1423.87C482.945,1420.4 469.286,1418.66 453.273,1418.66L418.656,1418.66Z" style="fill:rgb(8,146,165);fill-rule:nonzero;"/>
                    <path d="M707.4,1471.83L707.4,1611.18C707.4,1620.83 705.104,1628.13 700.512,1633.08C695.92,1638.03 690.091,1640.5 683.027,1640.5C675.962,1640.5 670.222,1637.97 665.806,1632.9C661.391,1627.84 659.183,1620.6 659.183,1611.18L659.183,1473.24C659.183,1463.7 661.391,1456.52 665.806,1451.69C670.222,1446.86 675.962,1444.45 683.027,1444.45C690.091,1444.45 695.92,1446.86 700.512,1451.69C705.104,1456.52 707.4,1463.23 707.4,1471.83ZM683.556,1422.02C676.845,1422.02 671.105,1419.96 666.336,1415.84C661.567,1411.72 659.183,1405.89 659.183,1398.35C659.183,1391.52 661.626,1385.9 666.513,1381.49C671.399,1377.07 677.08,1374.86 683.556,1374.86C689.797,1374.86 695.331,1376.86 700.159,1380.87C704.986,1384.87 707.4,1390.7 707.4,1398.35C707.4,1405.77 705.045,1411.57 700.335,1415.75C695.625,1419.93 690.032,1422.02 683.556,1422.02Z" style="fill:rgb(8,146,165);fill-rule:nonzero;"/>
                    <path d="M963.47,1479.77L963.47,1619.83C963.47,1635.85 961.763,1649.62 958.348,1661.16C954.933,1672.7 949.458,1682.24 941.922,1689.77C934.387,1697.31 924.525,1702.9 912.339,1706.55C900.152,1710.2 884.992,1712.03 866.859,1712.03C850.257,1712.03 835.421,1709.7 822.351,1705.05C809.281,1700.4 799.214,1694.4 792.149,1687.04C785.084,1679.68 781.552,1672.11 781.552,1664.34C781.552,1658.45 783.554,1653.66 787.557,1649.95C791.56,1646.24 796.388,1644.38 802.04,1644.38C809.105,1644.38 815.286,1647.5 820.585,1653.74C823.175,1656.92 825.854,1660.13 828.621,1663.37C831.388,1666.61 834.45,1669.38 837.805,1671.67C841.161,1673.97 845.194,1675.67 849.904,1676.79C854.614,1677.91 860.03,1678.47 866.153,1678.47C878.634,1678.47 888.318,1676.73 895.207,1673.26C902.095,1669.79 906.922,1664.93 909.689,1658.69C912.456,1652.45 914.075,1645.77 914.546,1638.64C915.017,1631.52 915.371,1620.07 915.606,1604.29C908.188,1614.65 899.622,1622.54 889.908,1627.96C880.194,1633.37 868.625,1636.08 855.202,1636.08C839.071,1636.08 824.971,1631.96 812.902,1623.72C800.833,1615.48 791.56,1603.94 785.084,1589.1C778.608,1574.27 775.37,1557.13 775.37,1537.7C775.37,1523.22 777.343,1510.15 781.287,1498.5C785.232,1486.84 790.854,1477.01 798.154,1469C805.454,1460.99 813.873,1454.96 823.411,1450.9C832.948,1446.83 843.428,1444.8 854.849,1444.8C868.508,1444.8 880.341,1447.42 890.35,1452.66C900.358,1457.9 909.66,1466.12 918.255,1477.3L918.255,1470.77C918.255,1462.41 920.316,1455.93 924.437,1451.34C928.558,1446.75 933.857,1444.45 940.333,1444.45C949.635,1444.45 955.817,1447.48 958.878,1453.55C961.939,1459.61 963.47,1468.35 963.47,1479.77ZM823.764,1540.88C823.764,1560.43 828.032,1575.21 836.569,1585.22C845.106,1595.22 856.144,1600.23 869.685,1600.23C877.692,1600.23 885.257,1598.08 892.381,1593.78C899.504,1589.48 905.303,1583.01 909.778,1574.35C914.252,1565.7 916.489,1555.19 916.489,1542.83C916.489,1523.16 912.162,1507.86 903.508,1496.91C894.853,1485.95 883.461,1480.48 869.332,1480.48C855.556,1480.48 844.517,1485.72 836.216,1496.2C827.915,1506.68 823.764,1521.57 823.764,1540.88Z" style="fill:rgb(8,146,165);fill-rule:nonzero;"/>
                    <path d="M1089.37,1471.83L1089.37,1611.18C1089.37,1620.83 1087.08,1628.13 1082.48,1633.08C1077.89,1638.03 1072.06,1640.5 1065,1640.5C1057.93,1640.5 1052.19,1637.97 1047.78,1632.9C1043.36,1627.84 1041.15,1620.6 1041.15,1611.18L1041.15,1473.24C1041.15,1463.7 1043.36,1456.52 1047.78,1451.69C1052.19,1446.86 1057.93,1444.45 1065,1444.45C1072.06,1444.45 1077.89,1446.86 1082.48,1451.69C1087.08,1456.52 1089.37,1463.23 1089.37,1471.83ZM1065.53,1422.02C1058.82,1422.02 1053.08,1419.96 1048.31,1415.84C1043.54,1411.72 1041.15,1405.89 1041.15,1398.35C1041.15,1391.52 1043.6,1385.9 1048.48,1381.49C1053.37,1377.07 1059.05,1374.86 1065.53,1374.86C1071.77,1374.86 1077.3,1376.86 1082.13,1380.87C1086.96,1384.87 1089.37,1390.7 1089.37,1398.35C1089.37,1405.77 1087.02,1411.57 1082.31,1415.75C1077.6,1419.93 1072,1422.02 1065.53,1422.02Z" style="fill:rgb(8,146,165);fill-rule:nonzero;"/>
                    <path d="M1170.77,1448.69L1176.06,1448.69L1176.06,1419.72C1176.06,1411.95 1176.27,1405.86 1176.68,1401.44C1177.09,1397.03 1178.24,1393.23 1180.13,1390.05C1182.01,1386.75 1184.72,1384.08 1188.25,1382.02C1191.78,1379.95 1195.73,1378.92 1200.08,1378.92C1206.21,1378.92 1211.74,1381.22 1216.69,1385.81C1219.98,1388.87 1222.07,1392.61 1222.96,1397.03C1223.84,1401.44 1224.28,1407.71 1224.28,1415.84L1224.28,1448.69L1241.94,1448.69C1248.77,1448.69 1253.98,1450.31 1257.57,1453.55C1261.16,1456.78 1262.96,1460.93 1262.96,1466C1262.96,1472.47 1260.4,1477.01 1255.28,1479.6C1250.15,1482.19 1242.83,1483.48 1233.29,1483.48L1224.28,1483.48L1224.28,1572.15C1224.28,1579.68 1224.55,1585.48 1225.08,1589.54C1225.61,1593.61 1227.02,1596.9 1229.31,1599.43C1231.61,1601.97 1235.35,1603.23 1240.53,1603.23C1243.36,1603.23 1247.18,1602.73 1252.01,1601.73C1256.84,1600.73 1260.61,1600.23 1263.31,1600.23C1267.2,1600.23 1270.7,1601.79 1273.82,1604.91C1276.94,1608.03 1278.5,1611.88 1278.5,1616.48C1278.5,1624.25 1274.26,1630.19 1265.79,1634.32C1257.31,1638.44 1245.12,1640.5 1229.23,1640.5C1214.15,1640.5 1202.73,1637.97 1194.96,1632.9C1187.19,1627.84 1182.1,1620.83 1179.68,1611.88C1177.27,1602.94 1176.06,1590.99 1176.06,1576.03L1176.06,1483.48L1169.7,1483.48C1162.76,1483.48 1157.46,1481.83 1153.81,1478.54C1150.16,1475.24 1148.33,1471.06 1148.33,1466C1148.33,1460.93 1150.25,1456.78 1154.07,1453.55C1157.9,1450.31 1163.46,1448.69 1170.77,1448.69Z" style="fill:rgb(8,146,165);fill-rule:nonzero;"/>
                    <path d="M1446.97,1613.3C1435.31,1622.36 1424.04,1629.16 1413.15,1633.7C1402.26,1638.23 1390.04,1640.5 1376.5,1640.5C1364.13,1640.5 1353.27,1638.05 1343.91,1633.17C1334.55,1628.28 1327.34,1621.66 1322.28,1613.3C1317.21,1604.94 1314.68,1595.87 1314.68,1586.1C1314.68,1572.91 1318.86,1561.67 1327.22,1552.36C1335.58,1543.06 1347.06,1536.82 1361.66,1533.64C1364.72,1532.94 1372.32,1531.35 1384.45,1528.87C1396.57,1526.4 1406.96,1524.13 1415.62,1522.07C1424.27,1520.01 1433.66,1517.51 1443.79,1514.57C1443.2,1501.85 1440.64,1492.52 1436.11,1486.57C1431.57,1480.63 1422.18,1477.65 1407.94,1477.65C1395.69,1477.65 1386.48,1479.36 1380.3,1482.78C1374.11,1486.19 1368.82,1491.31 1364.4,1498.14C1359.98,1504.97 1356.86,1509.48 1355.04,1511.65C1353.21,1513.83 1349.3,1514.92 1343.29,1514.92C1337.88,1514.92 1333.2,1513.18 1329.25,1509.71C1325.31,1506.24 1323.34,1501.79 1323.34,1496.38C1323.34,1487.9 1326.34,1479.66 1332.34,1471.65C1338.35,1463.64 1347.71,1457.05 1360.43,1451.87C1373.14,1446.69 1388.98,1444.1 1407.94,1444.1C1429.13,1444.1 1445.79,1446.6 1457.92,1451.6C1470.05,1456.61 1478.61,1464.53 1483.62,1475.36C1488.62,1486.19 1491.12,1500.56 1491.12,1518.45C1491.12,1529.76 1491.1,1539.35 1491.04,1547.24C1490.98,1555.13 1490.89,1563.9 1490.77,1573.56C1490.77,1582.62 1492.27,1592.07 1495.28,1601.91C1498.28,1611.74 1499.78,1618.07 1499.78,1620.89C1499.78,1625.84 1497.45,1630.34 1492.8,1634.4C1488.15,1638.47 1482.88,1640.5 1477,1640.5C1472.05,1640.5 1467.16,1638.17 1462.34,1633.52C1457.51,1628.87 1452.39,1622.13 1446.97,1613.3ZM1443.79,1543.53C1436.73,1546.12 1426.45,1548.86 1412.97,1551.75C1399.49,1554.63 1390.16,1556.75 1384.98,1558.1C1379.8,1559.46 1374.85,1562.11 1370.14,1566.05C1365.43,1570 1363.08,1575.5 1363.08,1582.57C1363.08,1589.87 1365.84,1596.08 1371.38,1601.2C1376.91,1606.32 1384.15,1608.88 1393.1,1608.88C1402.64,1608.88 1411.44,1606.79 1419.51,1602.61C1427.57,1598.43 1433.49,1593.05 1437.26,1586.45C1441.61,1579.15 1443.79,1567.14 1443.79,1550.42L1443.79,1543.53Z" style="fill:rgb(8,146,165);fill-rule:nonzero;"/>
                    <path d="M1568.99,1611.18L1568.99,1402.06C1568.99,1392.41 1571.13,1385.11 1575.43,1380.16C1579.73,1375.21 1585.53,1372.74 1592.83,1372.74C1600.13,1372.74 1606.02,1375.19 1610.49,1380.07C1614.97,1384.96 1617.2,1392.29 1617.2,1402.06L1617.2,1611.18C1617.2,1620.95 1614.94,1628.28 1610.4,1633.17C1605.87,1638.05 1600.01,1640.5 1592.83,1640.5C1585.76,1640.5 1580.02,1637.97 1575.61,1632.9C1571.19,1627.84 1568.99,1620.6 1568.99,1611.18Z" style="fill:rgb(8,146,165);fill-rule:nonzero;"/>
                    <path d="M1870.07,1404.53L1870.07,1592.99L1976.39,1592.99C1984.87,1592.99 1991.37,1595.05 1995.91,1599.17C2000.44,1603.29 2002.71,1608.47 2002.71,1614.71C2002.71,1621.07 2000.47,1626.22 1995.99,1630.16C1991.52,1634.11 1984.99,1636.08 1976.39,1636.08L1849.75,1636.08C1838.33,1636.08 1830.12,1633.55 1825.12,1628.49C1820.11,1623.42 1817.61,1615.24 1817.61,1603.94L1817.61,1404.53C1817.61,1393.94 1819.99,1385.99 1824.76,1380.69C1829.53,1375.39 1835.8,1372.74 1843.57,1372.74C1851.46,1372.74 1857.85,1375.36 1862.74,1380.6C1867.62,1385.84 1870.07,1393.82 1870.07,1404.53Z" style="fill:rgb(8,146,165);fill-rule:nonzero;"/>
                    <path d="M2243.23,1542.47C2243.23,1556.84 2241,1570.09 2236.52,1582.21C2232.05,1594.34 2225.57,1604.76 2217.09,1613.48C2208.62,1622.19 2198.49,1628.87 2186.72,1633.52C2174.94,1638.17 2161.69,1640.5 2146.98,1640.5C2132.38,1640.5 2119.25,1638.14 2107.59,1633.43C2095.93,1628.72 2085.84,1621.98 2077.3,1613.21C2068.76,1604.44 2062.29,1594.08 2057.87,1582.12C2053.46,1570.17 2051.25,1556.96 2051.25,1542.47C2051.25,1527.87 2053.49,1514.51 2057.96,1502.38C2062.43,1490.25 2068.85,1479.89 2077.21,1471.3C2085.57,1462.7 2095.7,1456.08 2107.59,1451.43C2119.48,1446.78 2132.61,1444.45 2146.98,1444.45C2161.58,1444.45 2174.82,1446.81 2186.72,1451.52C2198.61,1456.22 2208.79,1462.94 2217.27,1471.65C2225.75,1480.36 2232.2,1490.72 2236.61,1502.73C2241.03,1514.74 2243.23,1527.99 2243.23,1542.47ZM2194.84,1542.47C2194.84,1522.81 2190.51,1507.5 2181.86,1496.55C2173.2,1485.6 2161.58,1480.13 2146.98,1480.13C2137.56,1480.13 2129.26,1482.57 2122.07,1487.46C2114.89,1492.34 2109.36,1499.56 2105.47,1509.09C2101.59,1518.63 2099.64,1529.76 2099.64,1542.47C2099.64,1555.07 2101.55,1566.08 2105.38,1575.5C2109.21,1584.92 2114.68,1592.13 2121.81,1597.14C2128.93,1602.14 2137.32,1604.64 2146.98,1604.64C2161.58,1604.64 2173.2,1599.14 2181.86,1588.13C2190.51,1577.12 2194.84,1561.9 2194.84,1542.47Z" style="fill:rgb(8,146,165);fill-rule:nonzero;"/>
                    <path d="M2349.88,1646.5L2354.3,1635.73L2294.95,1486.31C2291.3,1477.71 2289.48,1471.47 2289.48,1467.59C2289.48,1463.47 2290.54,1459.64 2292.66,1456.11C2294.78,1452.57 2297.69,1449.75 2301.4,1447.63C2305.11,1445.51 2308.97,1444.45 2312.97,1444.45C2319.92,1444.45 2325.16,1446.66 2328.69,1451.07C2332.22,1455.49 2335.34,1461.82 2338.05,1470.06L2378.85,1588.75L2417.53,1478.36C2420.59,1469.41 2423.36,1462.41 2425.83,1457.34C2428.3,1452.28 2430.92,1448.87 2433.69,1447.1C2436.46,1445.33 2440.37,1444.45 2445.43,1444.45C2449.08,1444.45 2452.59,1445.42 2455.94,1447.36C2459.3,1449.31 2461.89,1451.93 2463.71,1455.22C2465.54,1458.52 2466.45,1461.99 2466.45,1465.64C2465.98,1467.88 2465.22,1471.06 2464.16,1475.18C2463.1,1479.3 2461.8,1483.48 2460.27,1487.72L2397.39,1652.33C2391.98,1666.81 2386.68,1678.18 2381.5,1686.42C2376.32,1694.66 2369.46,1700.99 2360.92,1705.4C2352.39,1709.82 2340.88,1712.03 2326.39,1712.03C2312.26,1712.03 2301.67,1710.5 2294.6,1707.44C2287.54,1704.38 2284,1698.78 2284,1690.66C2284,1685.12 2285.68,1680.86 2289.04,1677.85C2292.39,1674.85 2297.37,1673.35 2303.96,1673.35C2306.55,1673.35 2309.08,1673.7 2311.56,1674.41C2314.62,1675.12 2317.27,1675.47 2319.51,1675.47C2325.04,1675.47 2329.39,1674.64 2332.57,1673C2335.75,1671.35 2338.61,1668.49 2341.14,1664.43C2343.67,1660.37 2346.59,1654.39 2349.88,1646.5Z" style="fill:rgb(8,146,165);fill-rule:nonzero;"/>
                    <path d="M2647.46,1613.3C2635.8,1622.36 2624.53,1629.16 2613.64,1633.7C2602.74,1638.23 2590.53,1640.5 2576.99,1640.5C2564.62,1640.5 2553.76,1638.05 2544.4,1633.17C2535.04,1628.28 2527.83,1621.66 2522.76,1613.3C2517.7,1604.94 2515.17,1595.87 2515.17,1586.1C2515.17,1572.91 2519.35,1561.67 2527.71,1552.36C2536.07,1543.06 2547.55,1536.82 2562.15,1533.64C2565.21,1532.94 2572.81,1531.35 2584.93,1528.87C2597.06,1526.4 2607.45,1524.13 2616.11,1522.07C2624.76,1520.01 2634.15,1517.51 2644.28,1514.57C2643.69,1501.85 2641.13,1492.52 2636.6,1486.57C2632.06,1480.63 2622.67,1477.65 2608.43,1477.65C2596.18,1477.65 2586.97,1479.36 2580.78,1482.78C2574.6,1486.19 2569.3,1491.31 2564.89,1498.14C2560.47,1504.97 2557.35,1509.48 2555.53,1511.65C2553.7,1513.83 2549.79,1514.92 2543.78,1514.92C2538.37,1514.92 2533.69,1513.18 2529.74,1509.71C2525.8,1506.24 2523.83,1501.79 2523.83,1496.38C2523.83,1487.9 2526.83,1479.66 2532.83,1471.65C2538.84,1463.64 2548.2,1457.05 2560.91,1451.87C2573.63,1446.69 2589.47,1444.1 2608.43,1444.1C2629.62,1444.1 2646.28,1446.6 2658.41,1451.6C2670.54,1456.61 2679.1,1464.53 2684.11,1475.36C2689.11,1486.19 2691.61,1500.56 2691.61,1518.45C2691.61,1529.76 2691.58,1539.35 2691.53,1547.24C2691.47,1555.13 2691.38,1563.9 2691.26,1573.56C2691.26,1582.62 2692.76,1592.07 2695.76,1601.91C2698.77,1611.74 2700.27,1618.07 2700.27,1620.89C2700.27,1625.84 2697.94,1630.34 2693.29,1634.4C2688.64,1638.47 2683.37,1640.5 2677.48,1640.5C2672.54,1640.5 2667.65,1638.17 2662.83,1633.52C2658,1628.87 2652.88,1622.13 2647.46,1613.3ZM2644.28,1543.53C2637.22,1546.12 2626.94,1548.86 2613.46,1551.75C2599.98,1554.63 2590.65,1556.75 2585.47,1558.1C2580.28,1559.46 2575.34,1562.11 2570.63,1566.05C2565.92,1570 2563.56,1575.5 2563.56,1582.57C2563.56,1589.87 2566.33,1596.08 2571.87,1601.2C2577.4,1606.32 2584.64,1608.88 2593.59,1608.88C2603.13,1608.88 2611.93,1606.79 2619.99,1602.61C2628.06,1598.43 2633.98,1593.05 2637.74,1586.45C2642.1,1579.15 2644.28,1567.14 2644.28,1550.42L2644.28,1543.53Z" style="fill:rgb(8,146,165);fill-rule:nonzero;"/>
                    <path d="M2769.47,1611.18L2769.47,1402.06C2769.47,1392.41 2771.62,1385.11 2775.92,1380.16C2780.22,1375.21 2786.02,1372.74 2793.32,1372.74C2800.62,1372.74 2806.51,1375.19 2810.98,1380.07C2815.45,1384.96 2817.69,1392.29 2817.69,1402.06L2817.69,1611.18C2817.69,1620.95 2815.43,1628.28 2810.89,1633.17C2806.36,1638.05 2800.5,1640.5 2793.32,1640.5C2786.25,1640.5 2780.51,1637.97 2776.1,1632.9C2771.68,1627.84 2769.47,1620.6 2769.47,1611.18Z" style="fill:rgb(8,146,165);fill-rule:nonzero;"/>
                    <path d="M2899.09,1448.69L2904.38,1448.69L2904.38,1419.72C2904.38,1411.95 2904.59,1405.86 2905,1401.44C2905.41,1397.03 2906.56,1393.23 2908.45,1390.05C2910.33,1386.75 2913.04,1384.08 2916.57,1382.02C2920.1,1379.95 2924.05,1378.92 2928.4,1378.92C2934.53,1378.92 2940.06,1381.22 2945.01,1385.81C2948.3,1388.87 2950.39,1392.61 2951.28,1397.03C2952.16,1401.44 2952.6,1407.71 2952.6,1415.84L2952.6,1448.69L2970.26,1448.69C2977.09,1448.69 2982.3,1450.31 2985.89,1453.55C2989.49,1456.78 2991.28,1460.93 2991.28,1466C2991.28,1472.47 2988.72,1477.01 2983.6,1479.6C2978.47,1482.19 2971.15,1483.48 2961.61,1483.48L2952.6,1483.48L2952.6,1572.15C2952.6,1579.68 2952.87,1585.48 2953.39,1589.54C2953.93,1593.61 2955.34,1596.9 2957.63,1599.43C2959.93,1601.97 2963.67,1603.23 2968.85,1603.23C2971.68,1603.23 2975.5,1602.73 2980.33,1601.73C2985.16,1600.73 2988.93,1600.23 2991.63,1600.23C2995.52,1600.23 2999.02,1601.79 3002.14,1604.91C3005.26,1608.03 3006.82,1611.88 3006.82,1616.48C3006.82,1624.25 3002.58,1630.19 2994.11,1634.32C2985.63,1638.44 2973.44,1640.5 2957.55,1640.5C2942.47,1640.5 2931.05,1637.97 2923.28,1632.9C2915.51,1627.84 2910.42,1620.83 2908,1611.88C2905.59,1602.94 2904.38,1590.99 2904.38,1576.03L2904.38,1483.48L2898.03,1483.48C2891.08,1483.48 2885.78,1481.83 2882.13,1478.54C2878.48,1475.24 2876.65,1471.06 2876.65,1466C2876.65,1460.93 2878.57,1456.78 2882.39,1453.55C2886.22,1450.31 2891.78,1448.69 2899.09,1448.69Z" style="fill:rgb(8,146,165);fill-rule:nonzero;"/>
                    <path d="M3097.93,1646.5L3102.35,1635.73L3043,1486.31C3039.35,1477.71 3037.53,1471.47 3037.53,1467.59C3037.53,1463.47 3038.59,1459.64 3040.7,1456.11C3042.83,1452.57 3045.74,1449.75 3049.45,1447.63C3053.16,1445.51 3057.01,1444.45 3061.02,1444.45C3067.96,1444.45 3073.2,1446.66 3076.74,1451.07C3080.27,1455.49 3083.39,1461.82 3086.1,1470.06L3126.9,1588.75L3165.58,1478.36C3168.64,1469.41 3171.4,1462.41 3173.88,1457.34C3176.35,1452.28 3178.97,1448.87 3181.74,1447.1C3184.5,1445.33 3188.42,1444.45 3193.48,1444.45C3197.13,1444.45 3200.63,1445.42 3203.99,1447.36C3207.35,1449.31 3209.94,1451.93 3211.76,1455.22C3213.59,1458.52 3214.5,1461.99 3214.5,1465.64C3214.03,1467.88 3213.26,1471.06 3212.2,1475.18C3211.14,1479.3 3209.85,1483.48 3208.32,1487.72L3145.44,1652.33C3140.02,1666.81 3134.73,1678.18 3129.55,1686.42C3124.36,1694.66 3117.51,1700.99 3108.97,1705.4C3100.43,1709.82 3088.92,1712.03 3074.44,1712.03C3060.31,1712.03 3049.71,1710.5 3042.65,1707.44C3035.58,1704.38 3032.05,1698.78 3032.05,1690.66C3032.05,1685.12 3033.73,1680.86 3037.09,1677.85C3040.44,1674.85 3045.41,1673.35 3052.01,1673.35C3054.6,1673.35 3057.13,1673.7 3059.6,1674.41C3062.66,1675.12 3065.31,1675.47 3067.55,1675.47C3073.09,1675.47 3077.44,1674.64 3080.62,1673C3083.8,1671.35 3086.66,1668.49 3089.19,1664.43C3091.72,1660.37 3094.63,1654.39 3097.93,1646.5Z" style="fill:rgb(8,146,165);fill-rule:nonzero;"/>
                    <path d="M3471.6,1525.34L3453.23,1525.34L3453.23,1608.53C3453.23,1619.48 3450.82,1627.55 3445.99,1632.73C3441.16,1637.91 3434.86,1640.5 3427.09,1640.5C3418.73,1640.5 3412.26,1637.79 3407.66,1632.37C3403.07,1626.96 3400.78,1619.01 3400.78,1608.53L3400.78,1409.3C3400.78,1398 3403.31,1389.82 3408.37,1384.75C3413.43,1379.69 3421.62,1377.16 3432.92,1377.16L3518.23,1377.16C3530,1377.16 3540.07,1377.66 3548.43,1378.66C3556.79,1379.66 3564.33,1381.69 3571.04,1384.75C3579.16,1388.17 3586.34,1393.05 3592.59,1399.41C3598.83,1405.77 3603.57,1413.16 3606.8,1421.58C3610.04,1430 3611.66,1438.92 3611.66,1448.34C3611.66,1467.65 3606.21,1483.07 3595.32,1494.61C3584.43,1506.15 3567.92,1514.33 3545.78,1519.16C3555.08,1524.11 3563.97,1531.4 3572.45,1541.06C3580.93,1550.72 3588.49,1560.99 3595.15,1571.88C3601.8,1582.77 3606.98,1592.6 3610.69,1601.38C3614.4,1610.15 3616.25,1616.18 3616.25,1619.48C3616.25,1622.89 3615.16,1626.28 3612.98,1629.63C3610.81,1632.99 3607.83,1635.64 3604.07,1637.58C3600.3,1639.53 3595.94,1640.5 3590.99,1640.5C3585.11,1640.5 3580.16,1639.11 3576.16,1636.35C3572.16,1633.58 3568.71,1630.08 3565.83,1625.84C3562.94,1621.6 3559.03,1615.36 3554.08,1607.12L3533.06,1572.15C3525.53,1559.31 3518.79,1549.54 3512.84,1542.83C3506.89,1536.12 3500.86,1531.52 3494.74,1529.05C3488.62,1526.58 3480.9,1525.34 3471.6,1525.34ZM3501.63,1416.54L3453.23,1416.54L3453.23,1487.72L3500.21,1487.72C3512.81,1487.72 3523.41,1486.63 3532,1484.45C3540.6,1482.28 3547.16,1478.57 3551.7,1473.33C3556.23,1468.09 3558.5,1460.88 3558.5,1451.69C3558.5,1444.51 3556.67,1438.18 3553.02,1432.7C3549.37,1427.23 3544.31,1423.14 3537.83,1420.43C3531.71,1417.84 3519.64,1416.54 3501.63,1416.54Z" style="fill:rgb(8,146,165);fill-rule:nonzero;"/>
                    <path d="M3812.45,1554.31L3718.13,1554.31C3718.25,1565.26 3720.46,1574.91 3724.76,1583.27C3729.05,1591.63 3734.76,1597.93 3741.89,1602.17C3749.01,1606.41 3756.87,1608.53 3765.47,1608.53C3771.24,1608.53 3776.51,1607.85 3781.27,1606.5C3786.04,1605.14 3790.66,1603.03 3795.14,1600.14C3799.61,1597.26 3803.73,1594.16 3807.5,1590.87C3811.27,1587.57 3816.16,1583.1 3822.16,1577.44C3824.63,1575.33 3828.17,1574.27 3832.76,1574.27C3837.7,1574.27 3841.71,1575.62 3844.77,1578.33C3847.83,1581.04 3849.36,1584.86 3849.36,1589.81C3849.36,1594.16 3847.65,1599.26 3844.24,1605.09C3840.82,1610.91 3835.67,1616.51 3828.78,1621.86C3821.9,1627.22 3813.24,1631.67 3802.82,1635.2C3792.4,1638.73 3780.42,1640.5 3766.88,1640.5C3735.91,1640.5 3711.83,1631.67 3694.64,1614C3677.45,1596.34 3668.86,1572.38 3668.86,1542.12C3668.86,1527.87 3670.97,1514.66 3675.21,1502.47C3679.45,1490.28 3685.64,1479.83 3693.76,1471.12C3701.88,1462.41 3711.89,1455.72 3723.78,1451.07C3735.68,1446.42 3748.87,1444.1 3763.35,1444.1C3782.19,1444.1 3798.35,1448.07 3811.83,1456.02C3825.31,1463.97 3835.41,1474.24 3842.12,1486.84C3848.83,1499.44 3852.19,1512.27 3852.19,1525.34C3852.19,1537.47 3848.71,1545.33 3841.77,1548.92C3834.82,1552.51 3825.05,1554.31 3812.45,1554.31ZM3718.13,1526.93L3805.56,1526.93C3804.38,1510.45 3799.94,1498.11 3792.22,1489.93C3784.51,1481.75 3774.36,1477.65 3761.76,1477.65C3749.75,1477.65 3739.89,1481.81 3732.17,1490.11C3724.46,1498.41 3719.78,1510.68 3718.13,1526.93Z" style="fill:rgb(8,146,165);fill-rule:nonzero;"/>
                    <path d="M3947,1474.48L3978.44,1582.21L4007.05,1482.07C4010.12,1471.59 4012.38,1464.44 4013.85,1460.61C4015.33,1456.78 4018.09,1453.13 4022.16,1449.66C4026.22,1446.19 4031.78,1444.45 4038.85,1444.45C4046.03,1444.45 4051.65,1446.19 4055.71,1449.66C4059.78,1453.13 4062.63,1456.9 4064.28,1460.96C4065.93,1465.03 4068.22,1472.06 4071.17,1482.07L4099.78,1582.21L4131.57,1474.48C4133.69,1466.7 4135.4,1461.08 4136.69,1457.61C4137.99,1454.13 4140.17,1451.07 4143.23,1448.42C4146.29,1445.77 4150.7,1444.45 4156.47,1444.45C4162.24,1444.45 4167.25,1446.45 4171.49,1450.45C4175.73,1454.46 4177.85,1459.17 4177.85,1464.58C4177.85,1469.53 4176.02,1477.01 4172.37,1487.02L4132.98,1602.52C4129.57,1612.3 4126.92,1619.36 4125.04,1623.72C4123.15,1628.08 4120.18,1631.96 4116.12,1635.38C4112.05,1638.79 4106.49,1640.5 4099.43,1640.5C4092.13,1640.5 4086.39,1638.67 4082.21,1635.02C4078.03,1631.37 4074.93,1626.9 4072.93,1621.6C4070.93,1616.3 4068.75,1609.41 4066.4,1600.93L4038.85,1506.97L4012.18,1600.93C4008.64,1614 4004.82,1623.87 4000.7,1630.52C3996.58,1637.17 3989.33,1640.5 3978.97,1640.5C3973.67,1640.5 3969.17,1639.47 3965.46,1637.41C3961.75,1635.35 3958.66,1632.4 3956.19,1628.58C3953.72,1624.75 3951.54,1620.22 3949.65,1614.98C3947.77,1609.74 3946.3,1605.59 3945.24,1602.52L3906.2,1487.02C3902.32,1476.18 3900.38,1468.71 3900.38,1464.58C3900.38,1459.4 3902.44,1454.75 3906.56,1450.63C3910.68,1446.51 3915.74,1444.45 3921.75,1444.45C3929.75,1444.45 3935.17,1446.72 3938,1451.25C3940.82,1455.78 3943.82,1463.53 3947,1474.48Z" style="fill:rgb(8,146,165);fill-rule:nonzero;"/>
                    <path d="M4357.09,1613.3C4345.43,1622.36 4334.15,1629.16 4323.26,1633.7C4312.37,1638.23 4300.15,1640.5 4286.61,1640.5C4274.25,1640.5 4263.39,1638.05 4254.03,1633.17C4244.67,1628.28 4237.45,1621.66 4232.39,1613.3C4227.33,1604.94 4224.8,1595.87 4224.8,1586.1C4224.8,1572.91 4228.98,1561.67 4237.34,1552.36C4245.7,1543.06 4257.18,1536.82 4271.78,1533.64C4274.84,1532.94 4282.43,1531.35 4294.56,1528.87C4306.69,1526.4 4317.08,1524.13 4325.74,1522.07C4334.39,1520.01 4343.78,1517.51 4353.91,1514.57C4353.32,1501.85 4350.76,1492.52 4346.22,1486.57C4341.69,1480.63 4332.3,1477.65 4318.05,1477.65C4305.81,1477.65 4296.59,1479.36 4290.41,1482.78C4284.23,1486.19 4278.93,1491.31 4274.52,1498.14C4270.1,1504.97 4266.98,1509.48 4265.15,1511.65C4263.33,1513.83 4259.41,1514.92 4253.41,1514.92C4247.99,1514.92 4243.31,1513.18 4239.37,1509.71C4235.42,1506.24 4233.45,1501.79 4233.45,1496.38C4233.45,1487.9 4236.45,1479.66 4242.46,1471.65C4248.46,1463.64 4257.82,1457.05 4270.54,1451.87C4283.26,1446.69 4299.1,1444.1 4318.05,1444.1C4339.25,1444.1 4355.91,1446.6 4368.04,1451.6C4380.16,1456.61 4388.73,1464.53 4393.73,1475.36C4398.74,1486.19 4401.24,1500.56 4401.24,1518.45C4401.24,1529.76 4401.21,1539.35 4401.15,1547.24C4401.09,1555.13 4401.01,1563.9 4400.89,1573.56C4400.89,1582.62 4402.39,1592.07 4405.39,1601.91C4408.39,1611.74 4409.9,1618.07 4409.9,1620.89C4409.9,1625.84 4407.57,1630.34 4402.92,1634.4C4398.27,1638.47 4393,1640.5 4387.11,1640.5C4382.16,1640.5 4377.28,1638.17 4372.45,1633.52C4367.62,1628.87 4362.5,1622.13 4357.09,1613.3ZM4353.91,1543.53C4346.84,1546.12 4336.57,1548.86 4323.09,1551.75C4309.6,1554.63 4300.27,1556.75 4295.09,1558.1C4289.91,1559.46 4284.97,1562.11 4280.26,1566.05C4275.55,1570 4273.19,1575.5 4273.19,1582.57C4273.19,1589.87 4275.96,1596.08 4281.49,1601.2C4287.03,1606.32 4294.27,1608.88 4303.22,1608.88C4312.75,1608.88 4321.56,1606.79 4329.62,1602.61C4337.69,1598.43 4343.6,1593.05 4347.37,1586.45C4351.73,1579.15 4353.91,1567.14 4353.91,1550.42L4353.91,1543.53Z" style="fill:rgb(8,146,165);fill-rule:nonzero;"/>
                    <path d="M4526.97,1570.91L4526.97,1611.18C4526.97,1620.95 4524.67,1628.28 4520.08,1633.17C4515.48,1638.05 4509.66,1640.5 4502.59,1640.5C4495.65,1640.5 4489.93,1638.03 4485.46,1633.08C4480.98,1628.13 4478.75,1620.83 4478.75,1611.18L4478.75,1476.95C4478.75,1455.28 4486.58,1444.45 4502.24,1444.45C4510.24,1444.45 4516.02,1446.98 4519.55,1452.04C4523.08,1457.11 4525.02,1464.58 4525.38,1474.48C4531.15,1464.58 4537.06,1457.11 4543.13,1452.04C4549.19,1446.98 4557.28,1444.45 4567.41,1444.45C4577.54,1444.45 4587.37,1446.98 4596.91,1452.04C4606.44,1457.11 4611.21,1463.82 4611.21,1472.18C4611.21,1478.07 4609.18,1482.92 4605.12,1486.75C4601.06,1490.58 4596.67,1492.49 4591.96,1492.49C4590.19,1492.49 4585.93,1491.4 4579.16,1489.22C4572.39,1487.05 4566.41,1485.95 4561.23,1485.95C4554.16,1485.95 4548.4,1487.81 4543.92,1491.52C4539.45,1495.23 4535.97,1500.73 4533.5,1508.03C4531.03,1515.33 4529.32,1524.02 4528.38,1534.08C4527.44,1544.15 4526.97,1556.43 4526.97,1570.91Z" style="fill:rgb(8,146,165);fill-rule:nonzero;"/>
                    <path d="M4789.22,1612.94L4789.22,1608.18C4782.74,1615.59 4776.35,1621.63 4770.05,1626.28C4763.75,1630.93 4756.93,1634.46 4749.57,1636.88C4742.21,1639.29 4734.17,1640.5 4725.46,1640.5C4713.92,1640.5 4703.23,1638.05 4693.4,1633.17C4683.57,1628.28 4675.06,1621.31 4667.88,1612.24C4660.7,1603.17 4655.25,1592.52 4651.54,1580.27C4647.83,1568.03 4645.98,1554.78 4645.98,1540.53C4645.98,1510.39 4653.34,1486.9 4668.06,1470.06C4682.77,1453.22 4702.14,1444.8 4726.16,1444.8C4740.06,1444.8 4751.77,1447.19 4761.31,1451.96C4770.85,1456.73 4780.15,1464.06 4789.22,1473.94L4789.22,1402.77C4789.22,1392.88 4791.19,1385.4 4795.13,1380.34C4799.08,1375.27 4804.7,1372.74 4812,1372.74C4819.3,1372.74 4824.92,1375.07 4828.87,1379.72C4832.81,1384.37 4834.78,1391.23 4834.78,1400.3L4834.78,1612.94C4834.78,1622.13 4832.66,1629.02 4828.43,1633.61C4824.19,1638.2 4818.71,1640.5 4812,1640.5C4805.41,1640.5 4799.96,1638.11 4795.66,1633.34C4791.37,1628.58 4789.22,1621.78 4789.22,1612.94ZM4694.37,1542.12C4694.37,1555.19 4696.4,1566.32 4700.47,1575.5C4704.53,1584.69 4710.09,1591.6 4717.16,1596.25C4724.22,1600.9 4731.93,1603.23 4740.29,1603.23C4748.77,1603.23 4756.51,1601.02 4763.52,1596.61C4770.52,1592.19 4776.12,1585.42 4780.3,1576.3C4784.48,1567.17 4786.57,1555.78 4786.57,1542.12C4786.57,1529.29 4784.48,1518.25 4780.3,1509C4776.12,1499.76 4770.47,1492.7 4763.34,1487.81C4756.22,1482.92 4748.42,1480.48 4739.94,1480.48C4731.11,1480.48 4723.22,1482.98 4716.27,1487.99C4709.33,1492.99 4703.94,1500.17 4700.11,1509.53C4696.28,1518.89 4694.37,1529.76 4694.37,1542.12Z" style="fill:rgb(8,146,165);fill-rule:nonzero;"/>
                    <path d="M5067.36,1577.44C5067.36,1590.75 5064.13,1602.14 5057.65,1611.62C5051.17,1621.1 5041.61,1628.28 5028.95,1633.17C5016.29,1638.05 5000.9,1640.5 4982.76,1640.5C4965.45,1640.5 4950.62,1637.85 4938.26,1632.55C4925.89,1627.25 4916.77,1620.63 4910.88,1612.68C4904.99,1604.73 4902.05,1596.76 4902.05,1588.75C4902.05,1583.45 4903.93,1578.92 4907.7,1575.15C4911.47,1571.38 4916.24,1569.5 4922.01,1569.5C4927.07,1569.5 4930.95,1570.73 4933.66,1573.2C4936.37,1575.68 4938.96,1579.15 4941.43,1583.63C4946.38,1592.22 4952.3,1598.64 4959.19,1602.88C4966.07,1607.12 4975.46,1609.24 4987.36,1609.24C4997.01,1609.24 5004.93,1607.09 5011.11,1602.79C5017.29,1598.49 5020.38,1593.58 5020.38,1588.04C5020.38,1579.56 5017.18,1573.38 5010.76,1569.5C5004.34,1565.61 4993.77,1561.9 4979.05,1558.37C4962.45,1554.25 4948.94,1549.92 4938.52,1545.39C4928.1,1540.86 4919.77,1534.88 4913.53,1527.46C4907.29,1520.04 4904.17,1510.92 4904.17,1500.09C4904.17,1490.43 4907.05,1481.3 4912.82,1472.71C4918.59,1464.11 4927.1,1457.26 4938.34,1452.13C4949.59,1447.01 4963.16,1444.45 4979.05,1444.45C4991.53,1444.45 5002.75,1445.75 5012.7,1448.34C5022.65,1450.93 5030.95,1454.4 5037.6,1458.76C5044.26,1463.11 5049.32,1467.94 5052.79,1473.24C5056.27,1478.54 5058,1483.72 5058,1488.78C5058,1494.32 5056.15,1498.85 5052.44,1502.38C5048.73,1505.91 5043.46,1507.68 5036.63,1507.68C5031.69,1507.68 5027.48,1506.27 5024,1503.44C5020.53,1500.62 5016.56,1496.38 5012.08,1490.72C5008.43,1486.01 5004.13,1482.25 4999.19,1479.42C4994.24,1476.6 4987.53,1475.18 4979.05,1475.18C4970.34,1475.18 4963.1,1477.04 4957.33,1480.75C4951.56,1484.45 4948.68,1489.08 4948.68,1494.61C4948.68,1499.67 4950.8,1503.82 4955.03,1507.06C4959.27,1510.3 4964.98,1512.98 4972.17,1515.1C4979.35,1517.22 4989.24,1519.81 5001.84,1522.87C5016.79,1526.52 5029.01,1530.88 5038.49,1535.94C5047.97,1541 5055.15,1546.98 5060.03,1553.87C5064.92,1560.75 5067.36,1568.61 5067.36,1577.44Z" style="fill:rgb(8,146,165);fill-rule:nonzero;"/>
                </g>
            </g>
        </g>
    </g>
</svg>
